<svg width="100" height="46" viewBox="0 0 100 46" fill="none" xmlns="http://www.w3.org/2000/svg">
<path d="M70.6253 4.54552C70.2718 4.54387 69.9321 4.68245 69.6806 4.93088C69.4291 5.17931 69.2864 5.51731 69.2837 5.8708C69.2896 6.21712 69.4311 6.54731 69.6777 6.79051C69.9244 7.03372 70.2565 7.17056 70.6029 7.17166C70.9493 7.17276 71.2823 7.03805 71.5304 6.79642C71.7786 6.55479 71.9222 6.2255 71.9303 5.87923C71.935 5.70523 71.9047 5.53206 71.8411 5.37002C71.7775 5.20798 71.682 5.06037 71.5603 4.93596C71.4386 4.81155 71.2931 4.71287 71.1324 4.6458C70.9718 4.57873 70.7993 4.54463 70.6253 4.54552Z" fill="#ED2024"/>
<path d="M69.5635 16.1562H71.6421V7.86011L69.5635 8.19719V16.1562Z" fill="#ED2024"/>
<path d="M65.0287 7.71237C64.0469 7.73136 63.0839 7.98444 62.2197 8.45057L61.9854 8.5708L62.5472 9.81911L62.8635 9.66968C63.4762 9.37097 64.1482 9.21373 64.8298 9.20956C65.5837 9.24046 65.8933 9.58653 65.8933 10.3084V10.7326H64.6573C62.6753 10.7326 61.4416 11.7837 61.4073 13.4141C61.4172 13.8076 61.5054 14.1952 61.6667 14.5543C61.828 14.9133 62.0592 15.2367 62.3469 15.5054C62.6345 15.7741 62.9728 15.9828 63.342 16.1194C63.7112 16.2559 64.104 16.3175 64.4972 16.3006C65.1387 16.3261 65.7789 16.2244 66.3808 16.0013C66.9828 15.7782 67.5347 15.438 68.0045 15.0006V10.5736C68.004 8.42023 66.4658 7.71237 65.0287 7.71237ZM65.8888 14.586C65.56 14.7732 65.186 14.8661 64.8079 14.8545C64.6332 14.8558 64.4603 14.8191 64.3012 14.7469C64.1421 14.6747 64.0005 14.5687 63.8864 14.4364C63.7723 14.3041 63.6884 14.1485 63.6404 13.9805C63.5924 13.8126 63.5815 13.6361 63.6085 13.4635C63.6063 13.2786 63.6433 13.0953 63.7168 12.9257C63.7904 12.7561 63.899 12.6039 64.0355 12.4791C64.1719 12.3543 64.3331 12.2598 64.5086 12.2016C64.6842 12.1434 64.87 12.123 65.054 12.1416H65.8888V14.586Z" fill="#ED2024"/>
<path d="M86.9629 14.8388C86.7404 14.8525 86.5176 14.8187 86.3092 14.7395C86.1008 14.6604 85.9117 14.5377 85.7545 14.3798C85.3389 13.7558 85.1631 13.0025 85.2595 12.259H89.7466V12.0517C89.7073 9.11348 88.7067 7.7764 86.5129 7.7764C84.0662 7.7764 83.1129 10.0281 83.0944 12.1427C83.0675 12.786 83.1798 13.4275 83.4238 14.0233C83.6677 14.6191 84.0375 15.1552 84.5078 15.5949C85.1477 16.0914 85.9412 16.348 86.7505 16.3202C87.2508 16.3215 87.7485 16.2479 88.2269 16.1017C88.7832 15.9264 89.3106 15.6701 89.7921 15.341L89.2045 14.1331C88.5442 14.5863 87.7637 14.832 86.9629 14.8388ZM86.5135 9.3264C87.4382 9.3264 87.5747 10.3303 87.5747 10.9556H85.3207C85.3567 10.1517 85.691 9.3264 86.5135 9.3264Z" fill="#ED2024"/>
<path d="M73.3118 9.34552V16.1568H75.4348V9.7472C75.8384 9.41969 76.3383 9.23376 76.8578 9.21799C77.1448 9.20122 77.4325 9.23062 77.7101 9.30507L78.2972 7.98765C77.8506 7.81049 77.373 7.7249 76.8927 7.73597C76.2164 7.73869 75.5482 7.88336 74.9314 8.16062C74.3145 8.43788 73.7628 8.84155 73.3118 9.34552Z" fill="#ED2024"/>
<path d="M94.1612 14.8444C93.2954 14.7781 93.1151 14.3949 93.1151 13.7652V5.56293L91.0275 5.91911V13.6298C91.0275 15.4573 92.0196 16.2405 93.6809 16.2405C93.9482 16.2333 94.2145 16.2053 94.4775 16.1567V14.8483C94.4775 14.8483 94.2797 14.8539 94.1612 14.8444Z" fill="#ED2024"/>
<path d="M80.9893 5.57416L78.8545 5.91685V13.6652C78.8545 15.4006 79.8691 16.2219 81.5685 16.2219C81.8347 16.2193 82.1001 16.1936 82.3618 16.1449V14.8528C82.3382 14.8528 82.1809 14.8528 82.0607 14.8461C81.1618 14.8152 80.9888 14.3213 80.9888 13.75V9.39045H82.3618V7.86349H80.9888L80.9893 5.57416Z" fill="#ED2024"/>
<path d="M4.12191 22.3376H0L8.24494 30.5832L10.3062 28.5219L4.12191 22.3376Z" fill="#ED2024"/>
<path d="M6.18817 36.7618L10.3056 32.6438L8.24435 30.5831L2.06458 36.7629L6.18817 36.7618Z" fill="#ED2024"/>
<path d="M22.6719 40.8882L12.3674 30.5831L10.3062 32.6438L18.55 40.8876L22.6719 40.8882Z" fill="#ED2024"/>
<path d="M22.6714 16.1567L10.3057 28.5225L12.3669 30.5837L26.7933 16.1567H22.6714Z" fill="#ED2024"/>
<path d="M38.1175 34.2079C37.8063 33.9482 37.5566 33.6227 37.3864 33.2549C37.2161 32.8871 37.1294 32.4862 37.1326 32.0809V24.5697H40.4843V22.3365H37.1326V19.2466H34.9281V32.0803C34.9028 32.7385 35.022 33.3943 35.2772 34.0015C35.5325 34.6087 35.9177 35.1526 36.4057 35.595C37.3576 36.3873 38.5672 36.8027 39.8051 36.7624C40.1211 36.7619 40.4368 36.7407 40.7501 36.6989L40.8624 36.6832V34.7438H40.8574C40.8574 34.7438 40.7293 34.7708 40.6989 34.7764C40.2537 34.8829 39.79 34.8871 39.3429 34.7886C38.8958 34.6902 38.4768 34.4916 38.1175 34.2079Z" fill="#141414"/>
<path d="M42.8162 27.1545L42.8073 36.764H45.0387L45.0415 27.3994C45.0415 27.3994 44.9853 25.959 45.7657 25.1758C46.4022 24.5376 47.5685 24.1938 49.1825 24.4157L47.0623 22.2955H47.0578C47.0578 22.2955 46.782 22.3298 46.6415 22.3517C45.5308 22.5544 44.5313 23.1532 43.8286 24.0371C43.1395 24.9272 42.7816 26.0293 42.8162 27.1545Z" fill="#141414"/>
<path d="M52.3454 26.8736C52.3344 26.5819 52.3836 26.291 52.4899 26.0191C52.5962 25.7472 52.7574 25.5001 52.9634 25.2933C53.6954 24.6706 54.6401 24.3555 55.5994 24.414C57.246 24.414 58.919 25.205 58.919 26.8247V28.3978H53.1662L55.0421 30.2742H61.0415V26.8792C61.0603 26.1926 60.9149 25.5115 60.6174 24.8925C60.3198 24.2734 59.8787 23.7344 59.3309 23.3202C58.2429 22.5455 56.9323 22.1461 55.5971 22.1826C54.2477 22.1443 52.922 22.5433 51.8179 23.3202C51.2649 23.7309 50.8188 24.2688 50.5175 24.8882C50.2161 25.5077 50.0683 26.1906 50.0865 26.8792V32.2387C50.0699 32.9257 50.2185 33.6066 50.5198 34.2242C50.8211 34.8417 51.2663 35.3779 51.8179 35.7876C52.9083 36.5931 54.2402 37.004 55.5949 36.9528C57.9078 36.8848 59.155 36.1921 60.4679 34.4579L58.8207 32.8107L58.8112 32.832C58.518 33.4272 58.0598 33.9255 57.4912 34.2674C56.9226 34.6092 56.2676 34.7803 55.6044 34.7601C54.6366 34.8005 53.6906 34.4654 52.964 33.8247C52.7576 33.6171 52.5962 33.3692 52.4898 33.0964C52.3835 32.8236 52.3345 32.5319 52.346 32.2393L52.3454 26.8736Z" fill="#141414"/>
<path d="M68.1607 22.1787C66.2877 22.1485 64.472 22.8248 63.0753 24.073L64.5185 25.5163C65.5572 24.816 66.7767 24.432 68.0292 24.4107C68.5158 24.359 69.0078 24.4087 69.4741 24.5567C69.9405 24.7048 70.3711 24.9479 70.7388 25.2708C70.9463 25.4608 71.1128 25.6911 71.2281 25.9477C71.3435 26.2042 71.4052 26.4817 71.4095 26.7629V28.1837L70.9539 27.9747C70.0895 27.6681 69.1806 27.5058 68.2635 27.4944C64.7169 27.4944 62.6691 29.1416 62.6455 32.0129C62.6455 34.891 64.7444 36.9219 67.7489 36.9506H67.9927C69.9149 36.9471 71.8229 36.6211 73.6371 35.986L73.6522 35.9809V26.7624C73.6691 26.1924 73.569 25.625 73.3581 25.0952C73.1471 24.5654 72.8299 24.0844 72.4258 23.682C71.2473 22.6564 69.7219 22.1187 68.1607 22.1787ZM71.4095 34.4978C70.3837 34.8976 69.2936 35.107 68.1927 35.1157C68.0897 35.1157 67.986 35.1135 67.8815 35.109C66.0214 35.0303 64.8197 33.8303 64.8197 32.0523C64.8107 31.7332 64.8668 31.4157 64.9844 31.119C65.1021 30.8223 65.2788 30.5527 65.5039 30.3264C66.2395 29.7181 67.1851 29.424 68.136 29.5079C69.1726 29.5524 70.1983 29.737 71.1854 30.0567L71.4101 30.1281L71.4095 34.4978Z" fill="#141414"/>
<path d="M88.9607 22.2371C87.6717 22.2805 86.443 22.7929 85.505 23.6781L85.2887 23.8708L85.0724 23.6781C84.5345 23.1868 83.9044 22.8073 83.2186 22.5616C82.5328 22.3159 81.805 22.2088 81.0775 22.2466C79.464 22.2788 77.887 22.7321 76.5028 23.5618L76.4899 23.5685V36.7607H78.773V25.0399L78.9354 24.9461C79.9898 24.3354 82.014 24.1983 83.0758 24.8556C83.4094 25.0178 83.6914 25.2694 83.8904 25.5825C84.0894 25.8955 84.1975 26.2577 84.2028 26.6286V36.7623H86.4303V26.7269C86.3972 25.3275 87.841 24.4674 89.0466 24.4107C89.4808 24.3443 89.9243 24.3763 90.3444 24.5042C90.7646 24.6322 91.1507 24.8529 91.4741 25.15C91.7221 25.4207 91.9134 25.7383 92.0368 26.0841C92.1602 26.4299 92.2132 26.7969 92.1927 27.1635V36.7623H94.4758V27.1028C94.4758 25.7129 94.2359 24.6506 93.1865 23.6236C92.0354 22.4989 90.682 22.1702 88.9607 22.2371Z" fill="#141414"/>
<path d="M28.0921 28.4775C26.4286 28.182 24.8898 27.6236 24.8674 26.318C24.8901 25.912 25.0349 25.5224 25.2828 25.2001C25.5307 24.8778 25.8701 24.6379 26.2567 24.5118C28.3353 23.7472 30.3354 25.0449 30.7623 25.455L32.2696 23.9478C31.6938 23.3777 31.0108 22.9272 30.2601 22.6222C29.5094 22.3173 28.7057 22.1638 27.8955 22.1708C26.6867 22.1181 25.4904 22.4332 24.4646 23.0747C23.9331 23.4164 23.4922 23.8817 23.1798 24.4308C22.8673 24.98 22.6924 25.5966 22.6702 26.2281C22.5797 29.5691 26.0084 30.2489 27.7724 30.5601L28.078 30.6163C30.3174 31.0949 30.6685 31.9275 30.6764 32.7466C30.6898 34.1753 29.259 34.8444 27.9702 34.8567C27.1158 34.9024 26.2651 34.7148 25.5092 34.314C24.7533 33.9132 24.1207 33.3143 23.6792 32.5815L23.6634 32.5573L22.2241 33.9972C22.8153 34.9722 23.6647 35.7645 24.6784 36.2867C25.692 36.8088 26.8303 37.0403 27.9674 36.9556C29.1768 36.956 30.3574 36.5867 31.3511 35.8972C31.8457 35.5371 32.2432 35.0599 32.5079 34.5084C32.7726 33.9568 32.8963 33.3482 32.8679 32.7371C32.8016 30.2921 31.2078 29.0551 28.0921 28.4775Z" fill="#141414"/>
</svg>
